Coordinates
version=1
nRows=38
nColumns=12
inDegrees=yes

Units are S.I. units (second, meters, Newtons, ...)
Angles are in degrees

endheader
time	SC_y	SC_z	SC_x	AC_y	AC_z	AC_x	GH_y	GH_z	GH_yy	EL_x	PS_y
       0.0               -29.7          5.535          56.21          59.64         -2.938          2.503          174.8          76.63          90.54          91.67          152.2
   0.03586               -29.7          5.535          56.21          59.64         -2.939          2.505          174.8          76.63          90.54          91.66          152.2
   0.07171               -29.7          5.536          56.21          59.64          -2.94          2.506          174.8          76.62          90.54          91.66          152.2
    0.1076               -29.7          5.536          56.21          59.63         -2.942          2.508          174.8          76.62          90.54          91.65          152.2
    0.1434               -29.7          5.537          56.21          59.63         -2.943           2.51          174.8          76.61          90.54          91.65          152.1
    0.1793               -29.7          5.537           56.2          59.63         -2.945          2.512          174.7           76.6          90.54          91.64          152.1
    0.2151               -29.7          5.537           56.2          59.63         -2.946          2.514          174.7          76.59          90.54          91.63          152.1
     0.251               -29.7          5.538           56.2          59.62         -2.948          2.516          174.7          76.58          90.54          91.62          152.1
    0.2868               -29.7          5.538           56.2          59.62          -2.95          2.518          174.7          76.58          90.54          91.62          152.0
    0.3227               -29.7          5.539          56.19          59.62         -2.952          2.521          174.7          76.57          90.54          91.61          152.0
    0.3586               -29.7           5.54          56.19          59.61         -2.954          2.523          174.6          76.56          90.54           91.6          152.0
    0.3944              -29.69           5.54          56.19          59.61         -2.956          2.526          174.6          76.54          90.55          91.59          152.0
    0.4303              -29.69          5.541          56.18           59.6         -2.959          2.529          174.6          76.53          90.55          91.58          151.9
    0.4661              -29.69          5.542          56.18           59.6         -2.962          2.533          174.6          76.52          90.55          91.56          151.9
     0.502              -29.69          5.543          56.17          59.59         -2.965          2.537          174.5           76.5          90.55          91.55          151.8
    0.5378              -29.69          5.544          56.17          59.59         -2.968           2.54          174.5          76.49          90.55          91.54          151.8
    0.5737              -29.69          5.545          56.16          59.58         -2.971          2.545          174.5          76.47          90.55          91.52          151.7
    0.6095              -29.69          5.546          56.16          59.57         -2.975           2.55          174.4          76.45          90.55          91.51          151.7
    0.6454              -29.69          5.547          56.15          59.56         -2.979          2.555          174.4          76.43          90.55          91.49          151.6
    0.6813              -29.68          5.548          56.14          59.56         -2.984           2.56          174.3          76.41          90.55          91.47          151.6
    0.7171              -29.68          5.549          56.14          59.55         -2.988          2.566          174.3          76.39          90.55          91.45          151.5
     0.753              -29.68          5.551          56.13          59.54         -2.994          2.573          174.2          76.36          90.55          91.42          151.4
    0.7888              -29.68          5.553          56.12          59.52           -3.0          2.581          174.1          76.33          90.55           91.4          151.3
    0.8247              -29.68          5.555          56.11          59.51         -3.007          2.589          174.1           76.3          90.55          91.37          151.2
    0.8605              -29.67          5.557           56.1           59.5         -3.014          2.598          174.0          76.26          90.55          91.34          151.1
    0.8964              -29.67          5.559          56.08          59.48         -3.022          2.609          173.9          76.22          90.56           91.3          151.0
    0.9322              -29.67          5.562          56.07          59.46         -3.031           2.62          173.8          76.18          90.56          91.26          150.9
    0.9681              -29.66          5.565          56.05          59.44         -3.042          2.633          173.7          76.13          90.56          91.22          150.8
     1.004              -29.66          5.568          56.04          59.42         -3.054          2.648          173.5          76.07          90.56          91.16          150.6
      1.04              -29.65          5.572          56.02           59.4         -3.067          2.664          173.4          76.01          90.56          91.11          150.4
     1.076              -29.65          5.576          55.99          59.37         -3.082          2.684          173.2          75.93          90.57          91.04          150.2
     1.112              -29.64          5.581          55.96          59.34         -3.099          2.705          173.0          75.85          90.57          90.96          149.9
     1.147              -29.63          5.587          55.93           59.3          -3.12          2.731          172.8          75.75          90.57          90.88          149.7
     1.183              -29.62          5.594           55.9          59.25         -3.143           2.76          172.6          75.64          90.58          90.77          149.3
     1.219              -29.61          5.601          55.86           59.2          -3.17          2.794          172.3           75.5          90.58          90.65          148.9
     1.255               -29.6          5.611          55.81          59.14         -3.203          2.835          171.9          75.35          90.59          90.51          148.5
     1.291              -29.59          5.622          55.75          59.07         -3.241          2.883          171.5          75.16          90.59          90.35          147.9
     1.327              -29.57          5.635          55.68          58.98         -3.287           2.94          171.0          74.94           90.6          90.15          147.3
